<svg width="21" height="20" viewBox="0 0 21 20" fill="none" xmlns="http://www.w3.org/2000/svg">
<g clip-path="url(#clip0_105_30)">
<path d="M17.4668 15.7168C17.0643 12.9 15.0431 10.6311 12.4337 9.79988C13.466 9.09649 14.1451 7.91195 14.1451 6.57139C14.1451 4.41811 12.3933 2.6665 10.2402 2.6665C8.08708 2.6665 6.33536 4.41811 6.33536 6.57139C6.33536 7.91195 7.01447 9.09649 8.04654 9.80003C5.4374 10.6313 3.41604 12.9 3.01366 15.7169C2.95799 16.1064 3.0741 16.5006 3.33232 16.7982C3.59072 17.0964 3.96524 17.2673 4.35946 17.2673H16.1208C16.5152 17.2673 16.8895 17.0964 17.1481 16.7982C17.4064 16.5006 17.5225 16.1064 17.4668 15.7168ZM7.35402 6.57139C7.35402 4.97989 8.64875 3.68516 10.2402 3.68516C11.8317 3.68516 13.1265 4.97989 13.1265 6.57139C13.1265 8.16288 11.8317 9.45761 10.2402 9.45761C8.64875 9.45761 7.35402 8.16288 7.35402 6.57139ZM16.3787 16.1309C16.3405 16.1748 16.2563 16.2487 16.121 16.2487H4.35949C4.22417 16.2487 4.13998 16.1748 4.10177 16.1309C4.06373 16.0871 4.00294 15.9939 4.02198 15.8611C4.46067 12.7912 7.13383 10.4763 10.2402 10.4763C13.3466 10.4763 16.0197 12.7912 16.4585 15.8609C16.4775 15.9938 16.4165 16.087 16.3787 16.1309Z" fill="#A45A2A"/>
<path d="M17.224 19.997H15.749C15.4357 19.997 15.1818 19.743 15.1818 19.4298C15.1818 19.1166 15.4357 18.8626 15.749 18.8626H17.224C18.3113 18.8626 19.196 17.9779 19.196 16.8906V3.10641C19.196 2.01911 18.3114 1.13444 17.224 1.13444H8.70589C8.39262 1.13444 8.13867 0.880454 8.13867 0.56722C8.13867 0.253985 8.39262 0 8.70589 0H17.2241C18.9369 0 20.3305 1.3935 20.3305 3.10641V16.8907C20.3304 18.6035 18.9369 19.997 17.224 19.997Z" fill="#A45A2A"/>
<path d="M11.6475 19.997H3.43942C1.72651 19.997 0.333008 18.6035 0.333008 16.8906V3.10641C0.333008 1.3935 1.72651 0 3.43942 0H4.71595C5.02922 0 5.28317 0.253985 5.28317 0.56722C5.28317 0.880454 5.02922 1.13444 4.71595 1.13444H3.43942C2.35212 1.13444 1.46745 2.01907 1.46745 3.10641V16.8907C1.46745 17.978 2.35208 18.8626 3.43942 18.8626H11.6475C11.9607 18.8626 12.2147 19.1166 12.2147 19.4299C12.2147 19.7431 11.9607 19.997 11.6475 19.997Z" fill="#A45A2A"/>
</g>
<defs>
<clipPath id="clip0_105_30">
<rect width="20" height="20" fill="white" transform="translate(0.333008)"/>
</clipPath>
</defs>
</svg>
