<svg width="20" height="20" viewBox="0 0 20 20" fill="none" xmlns="http://www.w3.org/2000/svg">
<g clip-path="url(#clip0_105_42)">
<path d="M16.3297 20.0004H14.9036C14.6008 20.0004 14.3552 19.7464 14.3552 19.4331C14.3552 19.1199 14.6008 18.8658 14.9036 18.8658H16.3297C17.3809 18.8658 18.2362 17.9811 18.2362 16.8936V3.10736C18.2362 2.0199 17.381 1.1351 16.3297 1.1351H8.09429C7.79142 1.1351 7.5459 0.881073 7.5459 0.567792C7.5459 0.254511 7.79142 0.000488281 8.09429 0.000488281H16.3297C17.9857 0.000488281 19.3331 1.3942 19.3331 3.10736V16.8937C19.333 18.6067 17.9858 20.0004 16.3297 20.0004Z" fill="#A45A2A"/>
<path d="M10.9389 20.0004H3.00331C1.34725 20.0004 0 18.6067 0 16.8936V3.10736C0 1.3942 1.34725 0.000488281 3.00331 0.000488281H4.23747C4.54034 0.000488281 4.78586 0.254511 4.78586 0.567792C4.78586 0.881073 4.54034 1.1351 4.23747 1.1351H3.00331C1.9521 1.1351 1.09679 2.01986 1.09679 3.10736V16.8937C1.09679 17.9811 1.95206 18.8659 3.00331 18.8659H10.9389C11.2418 18.8659 11.4873 19.1199 11.4873 19.4332C11.4873 19.7465 11.2418 20.0004 10.9389 20.0004Z" fill="#A45A2A"/>
<path d="M15.4665 13.9279C15.0212 13.9279 14.4766 13.915 14.244 13.9095C14.174 13.9079 14.1283 13.9068 14.1159 13.9067C13.7432 13.905 13.4223 13.7729 13.1622 13.5139C12.9511 13.3038 12.7468 13.074 12.5492 12.8518C12.4373 12.7261 12.3217 12.596 12.2051 12.4697C12.0875 12.3425 11.9768 12.2385 11.8664 12.1518C11.7233 12.0389 11.5707 11.9791 11.4257 11.9791C11.1858 11.9791 10.9883 12.1351 10.8838 12.4072C10.7636 12.7208 10.6715 13.4869 10.6681 13.5342C10.6533 13.7493 10.5344 13.8599 10.3045 13.8729C10.1538 13.8814 10.0059 13.8857 9.86502 13.8857C8.95699 13.8857 8.19042 13.7056 7.5215 13.3348C6.84506 12.96 6.23851 12.4111 5.66735 11.6567C4.94571 10.7038 4.29586 9.59923 3.56025 8.07525C3.52494 8.00213 2.96035 6.75689 2.90616 6.61643C2.89076 6.551 2.88237 6.44424 2.93588 6.40834C2.97662 6.40436 3.10067 6.39756 3.47091 6.39756C4.08829 6.39756 4.99684 6.41689 5.0471 6.41873C5.30145 6.43299 5.44007 6.53654 5.5387 6.7881C5.96962 7.88881 6.48271 8.81712 7.1073 9.62591C7.20197 9.74908 7.32563 9.86646 7.46482 9.96509C7.5625 10.0344 7.66729 10.0711 7.76777 10.0711H7.76781C7.9591 10.0711 8.11671 9.94462 8.1894 9.73259C8.27293 9.49142 8.3401 9.04751 8.34422 8.81208C8.35513 8.23455 8.34278 7.85787 8.31269 7.27978C8.28456 6.74525 8.03881 6.42592 7.56235 6.30615C7.70728 6.144 7.90476 6.10248 8.20639 6.0858C8.37526 6.07639 8.55994 6.07178 8.77117 6.07178C8.96749 6.07178 9.16822 6.07565 9.36235 6.07943C9.49874 6.08209 9.63506 6.08471 9.77133 6.08611C9.99623 6.08822 10.1911 6.10857 10.3676 6.14846C10.4748 6.17264 10.6223 6.23564 10.666 6.50404C10.6882 6.64025 10.6981 6.77236 10.6953 6.89701C10.6897 7.15271 10.6813 7.41291 10.6733 7.66451C10.6618 8.02627 10.6498 8.40037 10.6456 8.76947C10.6424 9.05591 10.6659 9.31994 10.7156 9.55423C10.7813 9.86193 10.9597 10.0455 11.1929 10.0455C11.2909 10.0455 11.4412 10.0096 11.6006 9.83865C11.8532 9.56736 12.097 9.25169 12.3912 8.81529C12.7751 8.24564 13.1067 7.58123 13.4347 6.72424C13.5448 6.43748 13.573 6.41732 13.8662 6.41666C14.251 6.41564 14.6356 6.41506 15.0203 6.41506C15.3579 6.41506 15.6956 6.41557 16.0332 6.41666C16.1619 6.41725 16.2658 6.431 16.3508 6.45893C16.409 6.47811 16.4593 6.506 16.4314 6.63314C16.3286 7.10486 16.0651 7.51685 15.8262 7.86591C15.5359 8.28974 15.2306 8.71501 14.9353 9.1263C14.7798 9.34283 14.6243 9.55943 14.4701 9.77689C14.4136 9.85669 14.3593 9.94568 14.2994 10.0568C14.0804 10.4666 14.1152 10.754 14.4228 11.0826C14.5863 11.2571 14.7563 11.4288 14.9207 11.5946C15.1527 11.8289 15.3927 12.0711 15.6129 12.3203C15.8912 12.6359 16.1363 12.9656 16.3411 13.3C16.4359 13.4549 16.463 13.6049 16.4154 13.7114C16.3695 13.8142 16.2517 13.8845 16.0837 13.9091C16.0353 13.916 15.8905 13.9279 15.4665 13.9279Z" fill="#A45A2A"/>
</g>
<defs>
<clipPath id="clip0_105_42">
<rect width="19.3333" height="20" fill="white"/>
</clipPath>
</defs>
</svg>
