<svg width="20" height="20" viewBox="0 0 20 20" fill="none" xmlns="http://www.w3.org/2000/svg">
<g clip-path="url(#clip0_105_36)">
<path d="M9.99957 16.4871C9.2157 16.4871 8.4507 16.3488 7.72324 16.0759L4.97469 16.4719C4.79922 16.4971 4.62184 16.4389 4.49555 16.3144C4.36922 16.1899 4.30844 16.0135 4.33125 15.8375L4.61809 13.6227C3.89414 12.5503 3.5127 11.3028 3.5127 10.0001C3.5127 6.42318 6.4227 3.51318 9.99965 3.51318C13.5766 3.51318 16.4866 6.42318 16.4866 10.0001C16.4866 13.5771 13.5764 16.4871 9.99957 16.4871ZM7.78973 14.9258C7.86207 14.9258 7.93406 14.9397 8.0016 14.9669C8.63691 15.2228 9.30914 15.3524 9.99949 15.3524C12.9507 15.3524 15.3518 12.9513 15.3518 10.0001C15.3518 7.04885 12.9507 4.64775 9.99949 4.64775C7.04824 4.64775 4.64715 7.04885 4.64715 10.0001C4.64715 11.1385 5 12.2256 5.66762 13.1438C5.75289 13.2611 5.79004 13.4065 5.77137 13.5503L5.55223 15.2424L7.70879 14.9317C7.7357 14.9277 7.76277 14.9258 7.78973 14.9258Z" fill="#A45A2A"/>
<path d="M16.8934 20H15.4181C15.1048 20 14.8508 19.746 14.8508 19.4327C14.8508 19.1194 15.1048 18.8654 15.4181 18.8654H16.8934C17.9808 18.8654 18.8656 17.9806 18.8656 16.8931V3.10688C18.8656 2.01941 17.9809 1.13461 16.8934 1.13461H8.37395C8.06063 1.13461 7.80664 0.880625 7.80664 0.567305C7.80664 0.253984 8.06063 0 8.37395 0H16.8934C18.6065 0 20.0002 1.39371 20.0002 3.10688V16.8931C20.0002 18.6063 18.6065 20 16.8934 20Z" fill="#A45A2A"/>
<path d="M11.3161 20H3.10688C1.39371 20 0 18.6063 0 16.8931V3.10688C0 1.39371 1.39371 0 3.10688 0H4.38359C4.69691 0 4.9509 0.253984 4.9509 0.567305C4.9509 0.880625 4.69691 1.13461 4.38359 1.13461H3.10688C2.01941 1.13461 1.13461 2.01938 1.13461 3.10688V16.8931C1.13461 17.9806 2.01938 18.8654 3.10688 18.8654H11.3161C11.6295 18.8654 11.8834 19.1194 11.8834 19.4327C11.8834 19.746 11.6295 20 11.3161 20Z" fill="#A45A2A"/>
<path d="M11.2653 10.9402L10.8848 11.3206C10.8522 11.3028 10.8171 11.2852 10.7816 11.2653C10.455 11.0841 10.0518 10.881 9.58142 10.4107C9.11006 9.93926 8.90525 9.53578 8.72428 9.20918C8.70475 9.17484 8.69682 9.15238 8.67908 9.12027L9.036 8.78481L9.07299 8.74781C9.35572 8.46508 9.35572 8.00656 9.07299 7.72383L8.51533 7.16617C8.231 6.88184 7.76939 6.88363 7.48732 7.17027L7.33869 7.32125C7.24189 7.44504 7.15982 7.58902 7.09967 7.74258C7.04408 7.88922 7.00857 8.02965 6.99314 8.16941C6.85732 9.29223 7.12877 10.077 8.52084 11.4696C10.4457 13.3939 11.7453 13.0189 11.8124 13.0114C11.9579 12.9943 12.1075 12.9481 12.2496 12.8932C12.402 12.8336 12.5472 12.7503 12.6704 12.6535L12.8215 12.505C13.1083 12.2229 13.1103 11.7611 12.8258 11.4766L12.2893 10.9402C12.0066 10.6574 11.5481 10.6574 11.2653 10.9402Z" fill="#A45A2A"/>
</g>
<defs>
<clipPath id="clip0_105_36">
<rect width="20" height="20" fill="white"/>
</clipPath>
</defs>
</svg>
